<?xml version="1.0" encoding="utf-8"?>
<!-- Generator: Adobe Illustrator 26.1.0, SVG Export Plug-In . SVG Version: 6.00 Build 0)  -->
<svg version="1.1" id="Layer_1" xmlns="http://www.w3.org/2000/svg" xmlns:xlink="http://www.w3.org/1999/xlink" x="0px" y="0px"
	 viewBox="0 0 44 44" style="enable-background:new 0 0 44 44;" xml:space="preserve">
<style type="text/css">
	.st0{display:none;fill-rule:evenodd;clip-rule:evenodd;fill:#FFFFFF;}
	.st1{fill:#FFFFFF;}
	.st2{font-family:'Losdol';}
	.st3{font-size:32.2294px;}
</style>
<path class="st0" d="M27.8,0.9V5c-1-0.2-2.1-0.4-3.1-0.8h-2.3c-3.8,0-5.7,0.5-8.2,1.8l-1.5,0.5C8.6,9.2,5.6,13.3,4.3,18L4,24.1
	c0.7-0.2,1.3-0.6,1.8-1h0.5l0.3-0.5h0.5l0.3-0.5l1-0.3l0.3-0.5h0.5l0.3-0.5l1-0.3v-0.3l0.8-0.3l0.3-0.5l1-0.3l0.3-0.5h0.5l0.3-0.5
	H14l0.3-0.5h0.5v-0.3h0.5l0.3-0.5h0.5l0.3-0.5l1-0.3v0l0.8-0.3l0.3-0.5l1-0.3v-0.3l0.8-0.3l0.3-0.5l1-0.3l0.3-0.5h0.5l0.3-0.5H23
	l0.3-0.5l1-0.3v-0.3l0.8-0.3l0.3-0.5h0.5v-0.3h0.5l0.3-0.5H27l0.3-0.5h0.5v0.1h0.5l0.3-0.5h0.5l0.3-0.5l1-0.3V7.8l0.8-0.3L31.5,7H32
	l0.3-0.5l1-0.3l0.3-0.5h0.5l0.3-0.5h0.5V5l0.8-0.3V5c1.7,0.8,5.6,5.2,5.9,7.4L8.2,33.1v0.5C8.5,33.8,8.8,34,9,34.4
	c0.5-0.1,0.2,0,0.5-0.3l0.8-0.3v-0.3h0.5v-0.3h0.5l0.3-0.5H12l0.3-0.5h0.5v-0.3h0.5l0.3-0.5H14l0.3-0.5l1-0.3l0.3-0.5h0.5l0.3-0.5
	l0.8-0.3V29l1-0.3v-0.3l0.8-0.3l0.3-0.5l1-0.3V27l0.8-0.3l0.3-0.5h0.5v-0.3h0.5l0.3-0.5H23l0.3-0.5l1-0.3l0.3-0.5H25l0.3-0.5l1-0.3
	l0.3-0.5H27l0.3-0.5l0.8-0.3v-0.3l1-0.3v-0.3l0.8-0.3l0.3-0.5h0.5V20h0.5l0.3-0.5H32l0.3-0.5l1-0.3l0.3-0.5h0.5l0.3-0.5l1-0.3
	l0.3-0.5H36l0.3-0.5h0.5l0.3-0.5l1-0.3l0.3-0.5h0.5l0.3-0.5l1-0.3l0.3-0.5l2-1c0.1,0.8,0.4,1.6,0.8,2.3v0.8h0.3V18h0.3v1.5h0.3
	c0.2,1.6,0.1,3.3-0.3,4.9l-0.3,2.8h-0.3L42.9,29h-0.3l-0.3,1.3H42l-0.3,1h-0.3l-0.5,1.5l-0.5,0.3v0.5h-0.3v0.5l-0.8,0.5v0.5
	l-0.8,0.5v0.5l-1,0.8c-0.5,0.6-1,1.2-1.5,1.8h-0.5L35,39.5h-0.5L34,40.3l-1,0.3L32.9,41l-1,0.3v0.3l-1.5,0.5v0.3h-0.8v0.3h-0.5V43
	h-1v0.3h-0.8v0.3H26c-1,0.3-4.8,1-6.4,0.5v-0.3h-1.8v-0.3L16,43.2V39c1,0.2,2.1,0.4,3.1,0.8h2.3c3.8,0,5.7-0.5,8.2-1.8l1.5-0.5
	l0.3-0.5h0.5l0.3-0.5h0.5l0.5-0.8h0.5l0.3-0.5l1.8-1.5v-0.5l1-0.8v-0.5l0.5-0.3l0.3-1h0.3V30H38l0.5-1.5h0.3v-0.8H39V27h0.3v-1h0.3
	v-1.3h0.3v-4.6L39,20.3v0.3h-0.5v0.3H38l-0.3,0.5h-0.5L37,21.9h-0.5v0.3H36l-0.3,0.5h-0.5l-0.3,0.5l-1,0.3L33.6,24h-0.5l-0.3,0.5
	h-0.5L32,25l-1,0.3v0.3l-0.8,0.3l-0.3,0.5h-0.5v0.3h-0.5L28.8,27h-0.5L28,27.5l-1,0.3l-0.3,0.5h-0.5L26,28.8L25,29l-0.3,0.5h-0.5
	L24,30.1l-0.8,0.3v0.3l-1,0.3v0.3l-0.8,0.3l-0.3,0.5l-1,0.3l-0.3,0.5h-0.5L19,33.4l-1,0.3V34l-0.8,0.3l-0.3,0.5l-1,0.3l-0.3,0.5
	h-0.5l-0.3,0.5l-1,0.3l-0.3,0.5H13l0,0h-0.5l-0.3,0.5l-1,0.3L11,38.2h-0.5l-0.3,0.5l-1,0.3l-0.3,0.5c-0.4,0,0.1-0.1-0.3-0.3
	c-1.8-1-5.6-5.1-6.1-7.4c0.6-0.1,1.2-0.4,1.8-0.8l0.3-0.5h0.5c0.1-0.2,0.2-0.3,0.3-0.5l1-0.3l0.3-0.5h0.5l0.3-0.5l1-0.3L8.7,28h0.5
	l0.3-0.5l1-0.3V27l0.8-0.3l0.3-0.5H12V26h0.5l0.3-0.5h0.5l0.3-0.5l1-0.3l0.3-0.5h0.5l0.3-0.5h0.5l0.3-0.5H17v-0.3h0.5l0.3-0.5h0.5
	l0.3-0.5l1-0.3v-0.3l0.8-0.3l0.3-0.5h0.5v-0.3h0.5l0.3-0.5h0.5l0.3-0.5l1-0.3l0.3-0.5h0.5l0.3-0.5l0.8-0.3v-0.3l1-0.3v0l0.8-0.3
	l0.3-0.5l1-0.3v-0.3l0.8-0.3l0.3-0.5h0.5v-0.3h0.5l0.3-0.5h0.5l0.3-0.5l1-0.3l0.3-0.5h0.5l0.3-0.5h0.5l0.3-0.5h0.5v-0.3h0.5l0.3-0.5
	H36v-0.3h-0.3c-0.2-0.8-0.3-0.9-1.3-1c-0.5,0.7-1.3,0.8-2,1.3l-0.3,0.5h-0.5v0.3h-0.5l-0.3,0.5h-0.5L30,12.7L29,13l-0.3,0.5h-0.5
	L27.9,14h-0.5l-0.3,0.5l-1,0.3v0.3l-0.8,0.3l0,0.6h-0.5v0.3h-0.5L24,16.8h-0.5l-0.3,0.5l-1,0.3v0.3L21.4,18l-0.3,0.5l-1,0.3
	l-0.3,0.5h-0.5L19,19.8l-0.8,0.3v0.3l-1,0.3V21l-0.8,0.3l-0.3,0.5l-1,0.3v0.3l-0.8,0.3L14,23.2l-1,0.3l0,0.2h-0.5l-0.3,0.5l-1,0.3
	v0.3l-0.8,0.3l-0.3,0.5l-1,0.3l-0.3,0.5H8.4l-0.3,0.5H7.7l-0.3,0.5l-1,0.3V28l-0.8,0l-0.3,0.5l-1,0.3L4,29.3H3.6l-0.3,0.5l-1,0.3
	L2,30.6c-0.4,0,0.1-0.1-0.3-0.3H1.5l-0.3-1.5H1V28c-1.5-4.4-1.3-9.2,0.5-13.5v-0.8h0.3l0.5-1.5h0.3l0.3-1l0.5-0.3l0.3-1l0.8-0.5V8.8
	l1-0.8V7.6L7.1,6l0.3-0.5h0.5l0.8-1h0.5l0.5-0.8l1-0.3L11,3l1-0.3V2.5L13.5,2V1.7l2.3-0.5V0.9h0.8V0.7h1.3c1-0.3,4.8-1,6.4-0.5v0.3
	H26v0.3L27.8,0.9z"/>
<text transform="matrix(1.0819 0 0 1 0.5872 29.4837)" class="st1 st2 st3">SA</text>
</svg>
